<?xml version="1.0" encoding="UTF-8" standalone="no"?>
<svg
   xmlns:dc="http://purl.org/dc/elements/1.1/"
   xmlns:cc="http://creativecommons.org/ns#"
   xmlns:rdf="http://www.w3.org/1999/02/22-rdf-syntax-ns#"
   xmlns:svg="http://www.w3.org/2000/svg"
   xmlns="http://www.w3.org/2000/svg"
   xmlns:sodipodi="http://sodipodi.sourceforge.net/DTD/sodipodi-0.dtd"
   xmlns:inkscape="http://www.inkscape.org/namespaces/inkscape"
   data-name="Layer 1"
   viewBox="0 0 97.769997 85.620003"
   x="0px"
   y="0px"
   version="1.1"
   id="svg3836"
   sodipodi:docname="swap-icon.svg"
   width="97.769997"
   height="85.620003"
   inkscape:version="0.92.2 (5c3e80d, 2017-08-06)">
  <metadata
     id="metadata3840">
    <rdf:RDF>
      <cc:Work
         rdf:about="">
        <dc:format>image/svg+xml</dc:format>
        <dc:type
           rdf:resource="http://purl.org/dc/dcmitype/StillImage" />
        <dc:title>80 all</dc:title>
      </cc:Work>
    </rdf:RDF>
  </metadata>
  <sodipodi:namedview
     pagecolor="#ffffff"
     bordercolor="#666666"
     borderopacity="1"
     objecttolerance="10"
     gridtolerance="10"
     guidetolerance="10"
     inkscape:pageopacity="0"
     inkscape:pageshadow="2"
     inkscape:window-width="1536"
     inkscape:window-height="897"
     id="namedview3838"
     showgrid="false"
     fit-margin-top="0"
     fit-margin-left="0"
     fit-margin-right="0"
     fit-margin-bottom="0"
     inkscape:zoom="5.6"
     inkscape:cx="48.88"
     inkscape:cy="30.295"
     inkscape:window-x="-8"
     inkscape:window-y="-8"
     inkscape:window-maximized="1"
     inkscape:current-layer="svg3836" />
  <defs
     id="defs3826">
    <style
       id="style3824">.cls-1{fill:#010101;}</style>
  </defs>
  <title
     id="title3828">80 all</title>
  <path
     class="cls-1"
     d="m 13.59,46.975 v 19 a 19.645,19.645 0 0 0 39.29,0 v -46.33 a 11.645,11.645 0 1 1 23.29,0 v 19 l -7.94,-7.95 -5.66,5.65 17.6,17.62 17.6,-17.62 -5.66,-5.65 -7.94,7.95 v -19 a 19.645,19.645 0 1 0 -39.29,0 v 46.36 a 11.645,11.645 0 0 1 -23.29,0 v -19 l 7.94,7.95 5.66,-5.65 -17.6,-17.66 -17.59,17.62 5.66,5.65 z"
     id="path3830"
     inkscape:connector-curvature="0"
     style="fill:#010101" />
</svg>
